# xmcd
#
# Track frame offsets:
#	150
#	21600
#	31965
#	49238
#	69135
#	84275
#	101373
#	114443
#	129798
#	145135
#	175925
#	187113
#
# Disc length: 2660 seconds
#
# Revision: 0
# Processed by: cddbd v1.4PL0 Copyright (c) Steve Scherf et al.
# Submitted via: dBpowerAMP V4.0
#
DISCID=990a620c
DTITLE=ZZ Top - Blue Jean Blues
DYEAR=1900
DGENRE=Blues
TTITLE0=Blue Jean Blues
TTITLE1=Tush
TTITLE2=Just Got Paid
TTITLE3=Ko Ko Blues
TTITLE4=Chevrolet
TTITLE5=Mushmouth Shoutin
TTITLE6=Francine
TTITLE7=Bar B-Q
TTITLE8=Whisky'n Mama
TTITLE9=Sure Got Gold After The Rain Fell
TTITLE10=Down Brownie
TTITLE11=Apologies To Pearly 
EXTD=ZZ Top, Blue Jean Blues. Import  CD From Japan
EXTT0=
EXTT1=
EXTT2=
EXTT3=
EXTT4=
EXTT5=
EXTT6=
EXTT7=
EXTT8=
EXTT9=
EXTT10=
EXTT11=
PLAYORDER=
